<svg xmlns="http://www.w3.org/2000/svg" width="511" height="511.615" viewBox="0 0 135.202 135.365"><path style="fill:#fdfdfd;stroke-width:.26458332;fill-opacity:1" d="M84.108 243.082c-8.599-1.43-16.117-8.308-18.619-17.033l-.607-2.117V127.359l.607-2.117c2.29-7.986 8.605-14.3 16.591-16.59l2.117-.608H180.77l2.116.607c7.987 2.29 14.302 8.605 16.591 16.591l.607 2.117V223.932l-.607 2.117c-2.271 7.922-8.496 14.19-16.458 16.576-1.926.577-2.392.597-15.677.69l-13.692.094v-51.095H176.139V169.56h-22.527l.085-5.622c.08-5.228.127-5.7.678-6.732.326-.61 1.031-1.443 1.567-1.852l.973-.743 9.612-.081 9.612-.081v-22.491l-11.046.096c-10.5.091-11.142.125-12.982.683-7.383 2.238-13.762 8.102-16.988 15.614-2.113 4.92-2.64 8.027-2.64 15.555v5.654H115.81l.069 11.311.069 11.31 8.268.07 8.268.07v51.058l-23.482-.031c-12.914-.017-24.117-.137-24.893-.266z" transform="translate(-64.882 -108.044)"/></svg>