<svg xmlns="http://www.w3.org/2000/svg" width="511.692" height="511.114" viewBox="0 0 135.385 135.232"><path style="fill:#fdfdfd;stroke-width:.26458332;fill-opacity:1" d="M54.06 185.296c-7.936-.94-14.834-4.285-20.414-9.898-5.392-5.424-8.794-12.46-9.647-19.948-.202-1.775-.262-13.76-.197-39.33.091-36.348.099-36.804.65-39.027 1.71-6.904 4.517-12.063 9.074-16.677 3.928-3.976 8.323-6.744 13.391-8.434 5.528-1.842 3.01-1.744 44.686-1.744h37.57l2.778.614c14.596 3.223 25.324 15.006 26.99 29.641.202 1.777.261 13.702.195 39.198-.088 33.465-.136 36.806-.549 38.497-3.427 14.036-12.88 23.513-26.571 26.64l-2.578.59-36.777.046c-20.228.026-37.598-.05-38.6-.168zm66.832-25.941c2.644-.544 5.66-2.224 7.727-4.302 2.178-2.192 3.39-4.306 4.133-7.209.504-1.972.522-3.025.522-30.005 0-26.979-.018-28.033-.522-30.005-1.152-4.504-4.162-8.226-8.209-10.152-1.237-.588-2.88-1.2-3.65-1.358-.961-.198-10.281-.289-29.596-.289-30.956 0-29.61-.065-32.969 1.601-1.938.962-2.408 1.295-4.008 2.836-1.793 1.727-3.204 3.993-4.061 6.523l-.725 2.137v57.415l.725 2.137c1.74 5.134 5.722 8.95 10.916 10.46 1.465.426 3.785.463 29.951.48 19.51.014 28.802-.07 29.766-.269zm-57.48-7.478c-2.537-.69-4.85-2.83-5.8-5.368-.521-1.393-.538-1.988-.538-19.287v-17.85h12.872l-.625 1.862c-1.324 3.948-1.246 9.499.193 13.817 1.254 3.76 2.665 6.03 5.552 8.922 5.012 5.023 10.335 7.104 17.443 6.818 3.545-.143 6.321-.825 9.148-2.248 5.827-2.935 10.271-8.334 12.032-14.618 1.087-3.88.976-9.51-.259-13.098l-.5-1.454h12.954l-.075 18.057-.075 18.058-.6 1.302c-.978 2.119-2.269 3.474-4.23 4.44l-1.773.873-27.258.05c-20.953.04-27.536-.024-28.462-.276zm25.016-19.529c-2.326-.437-5.558-2.197-7.368-4.01-5.862-5.876-5.88-15.065-.04-20.955 3.025-3.052 6.173-4.36 10.492-4.36 11.442 0 18.474 12.67 12.501 22.527-1.096 1.809-3.739 4.328-5.588 5.326-2.803 1.512-6.717 2.089-9.997 1.472zm21.034-39.909v-7.143H123.749V99.583H109.462z" transform="translate(-23.777 -50.237)"/></svg>