<svg xmlns="http://www.w3.org/2000/svg" width="511.384" height="511.147" viewBox="0 0 135.304 135.241"><path style="fill:#fdfdfd;stroke-width:.26458332;fill-opacity:1" d="M44.007 213.386c-9.667-1.426-18.418-9.578-20.71-19.288-.437-1.858-.467-4.916-.467-48.154s.03-46.296.468-48.154c2.129-9.026 9.953-16.85 18.979-18.98 1.858-.437 4.921-.467 48.286-.467 43.273 0 46.42.03 48.109.464 8.998 2.311 16.205 9.382 18.785 18.429l.573 2.009.076 45.376c.068 39.74.027 45.697-.329 47.963-1.484 9.458-8.944 17.626-18.61 20.379l-2.037.58-45.773.038c-25.19.02-46.482-.067-47.35-.195zm19.965-52.36v-30.693H43.6v61.384h20.372zm31.491 13.03c.003-10.307.115-18.42.27-19.485.326-2.263 1.242-4.004 3.225-6.13 1.052-1.129 2.023-1.86 3.175-2.392 1.512-.699 1.917-.767 4.57-.767 2.49 0 3.109.09 4.29.624 1.611.729 3.599 2.737 4.318 4.363 1.44 3.257 1.414 2.853 1.514 22.86l.094 18.588h20.375l-.102-20.704c-.1-20.293-.113-20.756-.694-23.34-1.2-5.334-3.159-9.135-6.358-12.334-4.17-4.17-9.653-6.328-16.08-6.328-7.664 0-12.873 2.626-17.862 9.007l-.715.914-.013-4.302-.012-4.303-10.053.07-10.053.069-.117 30.465c-.064 16.756-.045 30.538.043 30.626.088.088 4.664.16 10.17.16h10.01l.005-17.661zM57.07 121.724c3.351-.79 5.993-2.898 7.375-5.885.611-1.32.7-1.85.695-4.159-.006-3.296-.622-5.048-2.495-7.098-2.407-2.634-5.508-3.775-9.668-3.557-2.124.11-2.73.257-4.399 1.06-2.585 1.243-3.989 2.518-4.972 4.514-1.529 3.107-1.588 6.488-.167 9.591.762 1.665 2.781 3.796 4.36 4.601 2.512 1.282 6.211 1.654 9.271.933z" transform="translate(-22.83 -78.343)"/></svg>