<svg xmlns="http://www.w3.org/2000/svg" width="511" height="511.105" viewBox="0 0 135.202 135.23"><path style="fill:#fdfdfd;stroke-width:.26458332;fill-opacity:1" d="M49.118 267.796c-10.554-1.354-19.042-8.989-21.759-19.572-.436-1.7-.466-4.76-.466-47.986 0-43.225.03-46.286.466-47.985 1.158-4.51 3.238-8.365 6.258-11.6 3.572-3.824 7.615-6.164 12.987-7.516 1.908-.48 3.771-.5 48.022-.5 43.1 0 46.154.03 47.854.466 5 1.284 8.725 3.417 12.339 7.067 3.46 3.494 5.325 6.758 6.665 11.662l.611 2.236v92.34l-.733 2.623c-.76 2.72-2.172 5.819-3.651 8.012-.471.7-1.947 2.343-3.278 3.652-3.352 3.297-7.003 5.357-11.819 6.668-1.567.427-4.892.462-47.194.497-25.03.021-45.865-.008-46.302-.064zm36.947-33.442c14.092-1.437 26.027-8.595 33.855-20.301 3.408-5.097 6.157-11.691 7.358-17.651.61-3.032 1.16-9.112.932-10.324-.144-.766-.005-.944 2.204-2.823 2.04-1.736 6.045-6.228 5.783-6.49-.05-.049-1.148.263-2.442.694-1.293.43-3.304.959-4.468 1.173l-2.117.39.926-.688c2.466-1.832 5.198-5.474 5.935-7.909.168-.555.124-.549-1.231.185-1.762.954-5.716 2.473-7.554 2.9l-1.395.325-1.515-1.248c-3.243-2.67-6.804-3.931-11.04-3.91-3.412.018-6.159.857-8.978 2.743-5.232 3.5-8.22 9.89-7.362 15.745.147 1.006.25 1.85.229 1.877-.13.162-6.487-.747-8.364-1.196-9.25-2.211-18.354-7.599-24.34-14.402l-1.575-1.79-.65 1.28c-1.51 2.981-1.993 7.927-1.098 11.251.89 3.304 3.081 6.757 5.506 8.673.883.698 1.146 1.029.816 1.025-1.096-.01-4.198-.814-5.575-1.444l-1.47-.673.176 1.898c.351 3.783 2.039 7.311 4.834 10.106 1.914 1.914 3.852 3.14 6.334 4.008 1.721.6 1.764.636 1.019.843-.428.119-2.044.214-3.592.211l-2.815-.005.25.659c1.393 3.662 4.635 7.214 8.157 8.936 1.237.605 3.023 1.238 3.969 1.407.946.17 2.006.362 2.356.428.585.11.52.203-.794 1.15-1.76 1.27-6.13 3.462-8.441 4.235-3.22 1.077-6.754 1.607-10.715 1.608h-3.702l1.321.828c3.29 2.058 9.095 4.374 13.493 5.384 4.788 1.1 10.554 1.425 15.78.892z" transform="translate(-26.893 -132.637)"/></svg>